<?xml version="1.0" encoding="iso-8859-1"?>
<!-- Generator: Adobe Illustrator 18.0.0, SVG Export Plug-In . SVG Version: 6.00 Build 0)  -->
<!DOCTYPE svg PUBLIC "-//W3C//DTD SVG 1.1//EN" "http://www.w3.org/Graphics/SVG/1.1/DTD/svg11.dtd">
<svg xmlns="http://www.w3.org/2000/svg" xmlns:xlink="http://www.w3.org/1999/xlink" version="1.1" id="Capa_1" x="0px" y="0px" viewBox="0 0 205.978 205.978" style="enable-background:new 0 0 205.978 205.978;" xml:space="preserve" width="512px" height="512px">
<path d="M172.882,87.419h-20.148c-2.491,0-4.795,1.234-6.181,3.251V25.625c0-4.142-3.358-7.5-7.5-7.5h-18.988V7.5  c0-4.142-3.358-7.5-7.5-7.5h-26.49c-4.142,0-7.5,3.358-7.5,7.5v10.625H59.584c-4.142,0-7.5,3.358-7.5,7.5v17.077H33.095  c-4.142,0-7.5,3.358-7.5,7.5v99.429c0,0.884,0.156,1.762,0.462,2.592l17.986,48.846c1.086,2.949,3.896,4.908,7.038,4.908h78.77  c2.849,0,5.451-1.614,6.718-4.166l43.03-86.689c0.515-1.036,0.782-2.178,0.782-3.334v-16.87  C180.382,90.776,177.024,87.419,172.882,87.419z M165.382,110.029l-40.181,80.948h-68.89l-15.717-42.683V57.703h11.49v55.972  c0,4.142,3.358,7.5,7.5,7.5s7.5-3.358,7.5-7.5V33.125h11.491v63.146c0,4.142,3.358,7.5,7.5,7.5c4.142,0,7.5-3.358,7.5-7.5L93.576,15  h11.49v81.271c0,4.142,3.358,7.5,7.5,7.5c4.142,0,7.5-3.358,7.5-7.5V33.125h11.487v63.146c0,0.006,0.001,0.013,0.001,0.02v26.186  c0,3.482,2.397,6.506,5.787,7.302c3.391,0.794,6.882-0.848,8.431-3.967l11.613-23.393h7.998V110.029z" fill="#FFFFFF"/>
<g>
</g>
<g>
</g>
<g>
</g>
<g>
</g>
<g>
</g>
<g>
</g>
<g>
</g>
<g>
</g>
<g>
</g>
<g>
</g>
<g>
</g>
<g>
</g>
<g>
</g>
<g>
</g>
<g>
</g>
</svg>
